# xmcd
#
# Track frame offsets: 
#        150
#        17155
#        31012
#        44706
#        59104
#        74490
#        85037
#        105781
#        120494
#        135217
#        145208
#        165830
#
# Disc length: 2476 seconds
#
# Revision: 0
# Processed by: cddbd v1.5.2PL0 Copyright (c) Steve Scherf et al.
# Submitted via: ExactAudioCopy v0.99pb5
#
DISCID=9509aa0c
DTITLE=Daniel O'Donnell - Oh Holy Night - A Collection Of Daniel's Fav
DTITLE=orite Christmas Carols
DYEAR=2010
DGENRE=Christmas
TTITLE0=Mary's Boy Child
TTITLE1=Angels We Have Heard On High
TTITLE2=O Little Town Of Bethlehem
TTITLE3=O Come All Ye Faithful
TTITLE4=Mary Did You Know?
TTITLE5=Away In A Manger
TTITLE6=Oh Holy Night
TTITLE7=Remember Me
TTITLE8=Silent Night
TTITLE9=Once In Royal David's City
TTITLE10=In The Bleak Midwinter
TTITLE11=Christmas Day 1915
EXTD=
EXTT0=
EXTT1=
EXTT2=
EXTT3=
EXTT4=
EXTT5=
EXTT6=
EXTT7=
EXTT8=
EXTT9=
EXTT10=
EXTT11=
PLAYORDER=
